<svg width="40" height="41" viewBox="0 0 40 41" fill="none" xmlns="http://www.w3.org/2000/svg">
    <g clip-path="url(#clip0)">
      <path
        fill-rule="evenodd"
        clip-rule="evenodd"
        d="M26.6716 24.9148C27.5448 23.5954 28.0072 22.0466 28.0002 20.4644C27.9956 19.4138 27.784 18.3744 27.3777 17.4056C26.9714 16.4368 26.3782 15.5574 25.6321 14.8179C24.8859 14.0783 24.0014 13.4929 23.029 13.0952C22.0566 12.6974 21.0154 12.4951 19.9648 12.4997C18.3826 12.5068 16.838 12.9828 15.5263 13.8677C14.2146 14.7525 13.1948 16.0065 12.5958 17.4709C11.9967 18.9354 11.8454 20.5446 12.161 22.0951C12.4765 23.6455 13.2447 25.0676 14.3685 26.1815C15.4922 27.2953 16.921 28.0509 18.4742 28.3528C20.0274 28.6546 21.6352 28.4891 23.0943 27.8771C24.5535 27.2652 25.7983 26.2343 26.6716 24.9148ZM26.1729 24.5844C26.98 23.3637 27.407 21.9309 27.3997 20.4675C27.3898 18.5058 26.6013 16.6283 25.2076 15.2478C23.8139 13.8672 21.929 13.0965 19.9673 13.1052C18.5038 13.1118 17.0752 13.5524 15.8621 14.371C14.6491 15.1897 13.706 16.3497 13.1523 17.7043C12.5985 19.059 12.4589 20.5474 12.7512 21.9814C13.0434 23.4154 13.7544 24.7305 14.7941 25.7605C15.8338 26.7904 17.1556 27.4888 18.5923 27.7674C20.029 28.0461 21.5161 27.8924 22.8654 27.3258C24.2148 26.7592 25.3658 25.8052 26.1729 24.5844Z"
        fill="#6C5DD3"
      />
      <path
        d="M20.0276 16.5527C20.4003 16.5793 21.7482 17.0164 22.096 17.2553C21.8061 16.4147 20.8305 16.3028 20.0276 16.5527Z"
        fill="#6C5DD3"
      />
      <path
        fill-rule="evenodd"
        clip-rule="evenodd"
        d="M22.1085 17.2626C22.6677 17.4835 23.2199 17.7017 23.7527 17.8559C26.5945 18.6298 26.3077 20.1838 24.9117 21.4826C24.7121 21.6884 24.5047 21.8871 24.3189 22.065L24.3189 22.065C24.1848 22.1935 24.0619 22.3112 23.9614 22.413C22.8982 23.4964 21.0032 25.617 21.311 27.7822L21.311 27.7822L21.3133 27.7881C21.2389 27.8039 21.1649 27.8184 21.0913 27.8316C18.2654 28.4081 15.2123 26.7908 13.9127 24.7098C14.5473 23.2879 14.6508 22.0377 14.7863 20.4004L14.8061 20.1621C14.9171 18.5685 15.3713 17.2461 18.0907 16.497C18.7162 16.3446 19.3678 16.3996 20.0275 16.555C20.6252 16.4136 21.3168 16.4054 21.6849 16.7249C21.9382 16.9399 22.0635 17.1162 22.0959 17.2576L22.1085 17.2626ZM24.3334 20.2783C24.3672 20.2271 24.3851 20.1671 24.3847 20.1057C24.3841 20.0235 24.3509 19.9449 24.2925 19.8871C24.234 19.8293 24.1551 19.797 24.0728 19.7973C24.0115 19.7977 23.9516 19.8162 23.9008 19.8506C23.85 19.8849 23.8105 19.9336 23.7874 19.9904C23.7642 20.0472 23.7584 20.1096 23.7707 20.1697C23.7831 20.2298 23.8129 20.2849 23.8565 20.328C23.9001 20.3711 23.9556 20.4004 24.0158 20.412C24.076 20.4236 24.1383 20.4171 24.1949 20.3933C24.2514 20.3696 24.2996 20.3295 24.3334 20.2783ZM20.1415 19.4734C20.2986 19.2381 20.3824 18.9614 20.3823 18.6785L20.3817 18.6779C20.3814 18.2986 20.2306 17.935 19.9623 17.667C19.694 17.3989 19.3303 17.2483 18.951 17.2483C18.6681 17.2484 18.3915 17.3325 18.1563 17.4898C17.921 17.6471 17.7378 17.8706 17.6296 18.1321C17.5214 18.3935 17.4932 18.6812 17.5485 18.9587C17.6038 19.2363 17.7402 19.4911 17.9403 19.6911C18.1405 19.8911 18.3955 20.0273 18.6731 20.0824C18.9506 20.1375 19.2383 20.109 19.4997 20.0006C19.761 19.8923 19.9844 19.7088 20.1415 19.4734ZM19.7884 19.2503C19.899 19.0848 19.958 18.8902 19.958 18.6912C19.958 18.4243 19.852 18.1683 19.6633 17.9796C19.4745 17.7908 19.2185 17.6848 18.9516 17.6848C18.7526 17.6848 18.558 17.7438 18.3925 17.8544C18.227 17.965 18.098 18.1222 18.0219 18.3061C17.9457 18.49 17.9258 18.6923 17.9646 18.8875C18.0034 19.0827 18.0993 19.2621 18.24 19.4028C18.3808 19.5435 18.5601 19.6394 18.7553 19.6782C18.9505 19.7171 19.1529 19.6971 19.3368 19.621C19.5207 19.5448 19.6778 19.4158 19.7884 19.2503ZM24.274 21.5752C24.71 21.3607 25.1384 21.1179 25.4984 20.7897L25.4827 20.7718C25.1059 21.0732 24.6682 21.2848 24.2259 21.4674C23.7838 21.6507 23.3256 21.7924 22.8572 21.8906C22.3935 21.9822 21.9209 22.0211 21.4485 22.0065C20.9824 21.9932 20.514 21.9005 20.1082 21.6373L20.0926 21.6552C20.4236 22.0297 20.9343 22.1996 21.434 22.2448C21.9337 22.29 22.4271 22.1978 22.9001 22.0755C23.3727 21.952 23.8327 21.7845 24.274 21.5752Z"
        fill="#6C5DD3"
      />
    </g>
    <rect x="0.5" y="0.5" width="39" height="40" rx="5.5" stroke="#D2D6E5" />
    <defs>
      <clipPath id="clip0">
        <rect width="16" height="16" fill="white" transform="translate(12 12.5)" />
      </clipPath>
    </defs>
</svg>