<svg width="260" height="175" viewBox="0 0 260 175" fill="none" xmlns="http://www.w3.org/2000/svg">
<mask id="mask0" mask-type="alpha" maskUnits="userSpaceOnUse" x="0" y="-35" width="260" height="210">
<rect y="-35" width="260" height="210" rx="6" fill="url(#paint0_linear)"/>
</mask>
<g mask="url(#mask0)">
<path d="M95.8765 103.599C75.9244 106.482 39.713 124.19 54.4838 171.964C72.9473 231.681 113.131 117.451 10.0106 169.1" stroke="white" stroke-width="0.340972"/>
<path d="M102.982 182.506C105.894 180.696 108.533 177.638 110.588 173.365L107.221 127.611C104.563 123.679 101.503 121.032 98.3575 119.658L98.281 118.316L88.1662 118.863C83.092 119.063 78.2208 122.479 74.7162 129.044C71.0278 135.972 69.5254 143.807 70.256 152.661C70.8292 161.526 73.5531 170.288 78.2169 176.614C82.6456 182.607 87.9654 185.287 93.0153 184.757L103.103 183.846L102.982 182.506Z" fill="#FFA100"/>
<path d="M97.6417 119.659C98.3876 119.962 99.1211 120.339 99.8612 120.788L79.5482 122.72C80.1913 122.132 80.9281 121.626 81.6038 121.18L97.6417 119.659Z" fill="#FFB433"/>
<path d="M110.609 173.137C109.695 175.013 108.639 176.64 107.525 178.046L81.9454 180.649C81.4714 180.247 81.0156 179.823 80.5581 179.381L107.896 176.588L107.665 173.928L78.4552 176.921C78.3434 176.782 78.2299 176.624 78.118 176.485C77.914 176.204 77.7084 175.905 77.5028 175.606L107.543 172.523L107.311 169.863L75.9834 173.089C75.7252 172.644 75.4868 172.197 75.2484 171.75L107.169 168.46L106.938 165.8L74.0459 169.175C73.847 168.724 73.6679 168.271 73.4888 167.817L106.816 164.395L106.584 161.735L72.6058 165.245C72.4663 164.787 72.3267 164.33 72.1871 163.872L106.442 160.332L106.211 157.672L71.5024 161.227C71.4024 160.765 71.3024 160.303 71.2023 159.842L106.069 156.269L105.837 153.609L70.7495 157.23C70.689 156.764 70.6284 156.298 70.5679 155.831L105.715 152.204L105.484 149.544L70.2687 153.132C70.228 152.664 70.207 152.193 70.186 151.723L105.361 148.139L105.13 145.479L70.1469 149.092C70.1457 148.619 70.1642 148.145 70.1828 147.67L105.027 144.071L104.796 141.411L70.2963 144.992C70.3347 144.515 70.3927 144.036 70.4508 143.557L104.674 140.006L104.442 137.346L70.8258 140.839C70.9036 140.358 70.9541 139.859 71.0715 139.373L104.32 135.941L104.089 133.281L71.7493 136.615C71.8864 136.127 72.0417 135.619 72.2003 135.148L103.966 131.876L103.735 129.216L73.1428 132.35C73.3574 131.835 73.5386 131.325 73.7762 130.845L103.613 127.811L103.381 125.151L75.2738 127.991C75.6054 127.444 75.8906 126.945 76.2484 126.471L103.279 123.744L103.258 123.5C104.406 124.548 105.53 125.77 106.591 127.186C108.648 129.952 110.326 133.193 111.611 136.723L113.877 162.762C113.239 166.442 112.17 169.98 110.609 173.137Z" fill="#FFB433"/>
<path d="M105.027 181.728C104.502 182.142 103.975 182.52 103.423 182.847L103.46 183.241L89.0538 184.505C88.1379 184.255 87.1155 183.968 86.2181 183.499L105.027 181.728Z" fill="#FFB433"/>
<path d="M83.9763 129.433C77.448 143.033 79.3197 163.771 88.1573 175.758C96.995 187.745 109.472 186.436 116.02 172.834C122.549 159.234 120.677 138.496 111.839 126.509C102.982 114.523 90.5242 115.831 83.9763 129.433Z" fill="#FFBD4D"/>
<path opacity="0.2" d="M95.9161 144.299C100.727 134.286 108.761 130.948 116.2 134.645C121.045 146.541 121.237 162.069 115.972 172.987C111.16 183 103.127 186.338 95.6881 182.641C90.8412 170.726 90.6706 155.214 95.9161 144.299Z" fill="white"/>
<path opacity="0.7" d="M84.1808 129.344C77.6021 142.97 79.5158 163.76 88.4556 175.787C92.7774 181.606 97.9517 184.281 102.892 183.982C97.6544 184.751 92.0616 182.099 87.4237 175.893C78.4838 163.866 76.5702 143.076 83.1489 129.451C86.5481 122.417 91.5722 118.672 96.8519 118.357C91.9479 119.053 87.3603 122.753 84.1808 129.344Z" fill="white"/>
<path d="M87.7289 134.501C82.7167 144.917 84.1525 160.825 90.9333 170.004C97.7141 179.182 107.259 178.18 112.271 167.764C117.283 157.348 115.848 141.44 109.067 132.261C102.286 123.083 92.7412 124.084 87.7289 134.501Z" fill="#FFB433"/>
<path d="M110.763 168.069C115.811 157.611 114.341 141.628 107.482 132.398C104.251 128.062 100.406 125.979 96.7176 126.07C100.823 125.337 105.224 127.362 108.874 132.254C115.733 141.485 117.203 157.468 112.155 167.925C109.487 173.468 105.515 176.357 101.354 176.476C105.011 175.809 108.404 172.981 110.763 168.069Z" fill="#FFA100"/>
<path d="M181.499 50.8161C182.169 49.9984 182.636 48.8425 182.811 47.3891L177.28 34.336C176.113 33.4483 174.957 32.9766 173.903 32.886L173.747 32.5007L170.848 33.6615C169.387 34.2222 168.305 35.7034 167.934 37.971C167.546 40.3631 167.886 42.804 168.979 45.322C170.028 47.8589 171.694 50.1532 173.684 51.5425C175.573 52.8577 177.392 53.1154 178.813 52.4607L181.668 51.1961L181.499 50.8161Z" fill="#FFA100"/>
<path d="M173.694 32.9559C173.942 32.9709 174.194 33.0087 174.454 33.0666L168.717 35.6416C168.846 35.4061 169.011 35.1853 169.164 34.9877L173.694 32.9559Z" fill="#FFB433"/>
<path d="M182.795 47.3193C182.714 47.9587 182.568 48.5391 182.382 49.0608L175.174 52.3532C174.996 52.2823 174.821 52.2035 174.643 52.1194L182.346 48.5973L182.014 47.842L173.785 51.6077C173.738 51.578 173.689 51.543 173.643 51.5134C173.555 51.4515 173.466 51.3843 173.376 51.3171L181.839 47.443L181.507 46.6876L172.682 50.7311C172.563 50.6265 172.449 50.5193 172.335 50.4121L181.326 46.2912L180.994 45.5358L171.728 49.7777C171.625 49.6654 171.527 49.5504 171.43 49.4355L180.819 45.1369L180.487 44.3815L170.917 48.7703C170.83 48.6502 170.744 48.5301 170.658 48.4101L180.306 43.9851L179.974 43.2297L170.195 47.704C170.12 47.5788 170.045 47.4535 169.97 47.3283L179.793 42.8333L179.461 42.0779L169.578 46.609C169.514 46.4786 169.45 46.3482 169.386 46.2178L179.286 41.679L178.954 40.9236L169.03 45.4576C168.972 45.3246 168.919 45.189 168.866 45.0535L178.778 40.5246L178.446 39.7693L168.593 44.2877C168.546 44.1495 168.504 44.0088 168.462 43.868L178.277 39.3677L177.945 38.6123L168.229 43.0732C168.193 42.9299 168.163 42.784 168.132 42.6381L177.769 38.2134L177.437 37.458L167.971 41.8059C167.946 41.6574 167.911 41.5063 167.897 41.3527L177.262 37.059L176.93 36.3036L167.821 40.4786C167.813 40.3224 167.807 40.1583 167.807 40.0048L176.755 35.9047L176.423 35.1493L167.804 39.093C167.815 38.9211 167.818 38.7539 167.839 38.5901L176.247 34.7503L175.915 33.9949L167.993 37.6067C168.035 37.4141 168.069 37.2396 168.126 37.0656L175.746 33.5934L175.715 33.5242C176.155 33.7172 176.604 33.9633 177.055 34.2729C177.93 34.8785 178.742 35.6607 179.468 36.5663L182.717 43.9605C182.897 45.1004 182.937 46.2413 182.795 47.3193Z" fill="#FFB433"/>
<path d="M182.019 50.3851C181.907 50.5582 181.791 50.721 181.662 50.8712L181.712 50.9827L177.632 52.7781C177.34 52.7954 177.013 52.8126 176.705 52.7642L182.019 50.3851Z" fill="#FFB433"/>
<path d="M170.676 37.1686C170.122 41.7936 172.729 47.6757 176.501 50.3085C180.272 52.9413 183.784 51.3237 184.344 46.6962C184.898 42.0713 182.29 36.1891 178.519 33.5563C174.742 30.9261 171.235 32.5412 170.676 37.1686Z" fill="#FFBD4D"/>
<path opacity="0.2" d="M175.639 40.3364C176.048 36.9309 178.061 35.1593 180.6 35.5051C183.197 38.5063 184.797 43.0304 184.345 46.7455C183.936 50.151 181.922 51.9226 179.383 51.5767C176.784 48.5703 175.193 44.049 175.639 40.3364Z" fill="white"/>
<path opacity="0.7" d="M170.727 37.1216C170.161 41.7589 172.786 47.6523 176.591 50.2865C178.431 51.5613 180.207 51.8321 181.62 51.2559C180.167 51.999 178.271 51.7766 176.3 50.4197C172.495 47.7855 169.87 41.8921 170.437 37.2548C170.73 34.8605 171.824 33.2677 173.334 32.6533C171.972 33.3422 171 34.8785 170.727 37.1216Z" fill="white"/>
<path d="M172.275 38.2796C171.847 41.823 173.848 46.3353 176.739 48.3498C179.631 50.3643 182.318 49.1269 182.746 45.5834C183.174 42.04 181.173 37.5278 178.282 35.5132C175.39 33.4987 172.703 34.7361 172.275 38.2796Z" fill="#FFB433"/>
<path d="M182.336 45.8217C182.77 42.2627 180.752 37.7318 177.833 35.71C176.458 34.761 175.129 34.5321 174.061 34.9236C175.187 34.303 176.673 34.4601 178.225 35.5303C181.144 37.5521 183.162 42.083 182.728 45.642C182.5 47.5277 181.628 48.7657 180.425 49.2122C181.426 48.6555 182.135 47.4921 182.336 45.8217Z" fill="#FFA100"/>
<path d="M218.944 208.324L180.305 213.968L122.074 107.484L166.539 101.439L218.944 208.324Z" fill="#5849BD"/>
<path d="M166.54 101.439L122.075 107.484L207.218 72.8146L245.857 67.1699L166.54 101.439Z" fill="#8677F0"/>
<path d="M245.857 67.1702L274.153 184.47L218.945 208.324L166.54 101.439L245.857 67.1702Z" fill="#6C5DD3"/>
<path d="M134.602 105.809L151.136 103.478L203.249 210.654L189.774 212.511L134.602 105.809Z" fill="#FF72AC"/>
<path d="M150.844 103.551L151.135 103.478L203.249 210.654L202.629 210.8L150.844 103.551Z" fill="#A8054A"/>
<path d="M195.746 88.838L221.894 77.5122L257 191.899L240.284 199.11L195.746 88.838Z" fill="#FF72AC"/>
<path d="M195.746 88.8383L196.292 88.6926L240.721 198.855L240.284 199.11L195.746 88.8383Z" fill="#C10655"/>
<path d="M221.894 77.5129L178.885 84.0681L158.892 92.4805L195.747 88.8387L221.894 77.5129Z" fill="#FF63AB"/>
<path d="M196.294 88.6929L159.913 92.1525L158.893 92.4803L195.82 89.0935L196.294 88.6929Z" fill="#E53888"/>
<path d="M151.135 103.478L230.598 69.3552L217.305 71.3218L134.602 105.809L151.135 103.478Z" fill="#FF63AB"/>
<path d="M151.208 103.588L230.598 69.3555L229.36 69.574L150.844 103.551L151.208 103.588Z" fill="#E53888"/>
<g opacity="0.5">
<path opacity="0.5" d="M207.108 83.5581L178.011 87.7825L178.703 89.5305C172.767 92.4075 162.315 99.254 154.303 99.9095C143.633 100.856 135.475 102.349 135.475 102.349C126.881 108.54 166.175 101.876 167.887 100.856C169.088 100.128 177.501 94.7382 181.288 91.2786C192.833 92.1162 207.108 83.5581 207.108 83.5581Z" fill="#999999"/>
</g>
<path d="M178.303 89.7848L196.329 80.2434C189.519 78.7139 168.179 79.2237 164.792 60.9423C164.391 58.7208 164.828 56.645 166.868 55.5525C147.457 65.8586 147.239 65.3123 146.547 67.3153C144.617 72.8871 153.83 84.4314 162.316 87.0535C164.282 87.6726 174.625 88.9472 178.303 89.7848Z" fill="url(#paint1_linear)"/>
<path d="M166.431 70.8116C171.638 76.0557 176.737 82.0281 179.505 88.5468L194.363 84.1768C188.063 69.3549 181.726 49.5439 166.358 54.5695C166.03 54.6787 167.196 54.0961 147.967 64.2929C151.39 62.472 158.71 62.9819 166.431 70.8116Z" fill="url(#paint2_linear)"/>
<path d="M163.663 68.2626C173.095 76.0559 180.379 88.9477 180.67 89.676C180.524 89.6396 176.664 89.9309 164.209 88.0736C161.078 87.6002 157.8 85.8158 154.85 83.4122C146.11 76.238 140.611 63.492 152.046 63.492C156.27 63.4555 160.203 65.3857 163.663 68.2626ZM164.1 87.491C175.827 89.239 179.577 88.9477 179.687 88.9477C179.395 88.2557 172.476 76.1652 163.59 68.8453C160.313 66.1504 156.635 64.3296 152.665 64.3296C141.922 64.3296 147.093 76.3473 155.287 83.0845C158.055 85.3423 161.15 87.0175 164.1 87.491Z" fill="#C10655"/>
<path d="M225.901 51.9469L207.182 48.3416C219.018 50.7087 214.32 70.811 201.21 74.4528C186.242 78.6407 183.402 79.624 183.256 79.6969L194.8 84.686C194.946 84.6496 201.356 81.6634 216.287 77.4754C229.543 73.7608 237.664 54.314 225.901 51.9469Z" fill="url(#paint3_linear)"/>
<path d="M226.665 51.0732L227.466 51.146L226.629 50.9275C211.443 47.8684 207.255 46.8487 203.795 47.1037C188.099 48.269 183.401 65.1667 182.236 80.5712L194.072 84.9777C196.257 66.9875 211.953 48.1234 226.665 51.0732Z" fill="url(#paint4_linear)"/>
<path d="M220.692 50.9637C239.557 48.0867 233.584 69.6094 220.146 76.6015C218.944 77.2206 217.706 77.7304 216.395 78.0946C200.517 82.5375 190.43 86.3977 193.78 85.196C193.853 84.067 197.167 61.8525 213.846 53.1852C215.885 52.1291 218.143 51.3279 220.692 50.9637ZM219.782 76.0552C232.419 69.5001 238.063 49.2157 220.292 51.947C217.888 52.3111 215.74 53.0395 213.846 54.0228C199.935 61.2698 194.836 83.1566 194.763 84.2491C194.909 84.2127 201.318 81.6635 216.249 77.4755C217.488 77.1477 218.689 76.6743 219.782 76.0552Z" fill="#E53888"/>
<path d="M203.941 61.4526L186.898 67.3887C175.608 71.3581 180.634 88.5471 180.707 89.5668L193.854 85.0875C193.781 84.1042 192.615 65.3857 203.941 61.4526Z" fill="#C10655"/>
<path d="M212.353 84.2864C209.586 85.124 198.77 84.5049 193.671 85.0147L178.995 90.0767C186.024 91.3513 191.996 90.9507 194.327 90.4773C195.31 90.2952 193.708 90.8051 212.353 84.2864Z" fill="#E53888"/>
<path d="M213.046 60.5056C206.454 58.7576 203.25 60.797 186.753 66.5509C190.467 65.2399 195.384 65.8226 198.77 67.4614C209.076 72.5234 205.763 87.3088 196.185 90.6592L213.228 84.7232C223.935 80.9722 226.448 64.0381 213.046 60.5056Z" fill="url(#paint5_linear)"/>
<path d="M193.307 65.9315C210.169 67.8981 207.109 87.4177 195.711 90.841C194.691 91.1323 193.599 91.3144 192.47 91.3508C178.485 91.6786 180.488 89.3479 180.343 89.3843C180.306 88.2917 174.734 70.1559 187.335 66.4049C189.046 65.8587 191.049 65.6766 193.307 65.9315ZM195.31 90.2583C206.053 87.0171 208.93 68.6628 193.052 66.842C190.904 66.587 189.046 66.7691 187.408 67.2425C175.536 70.8114 181.071 87.7091 181.108 88.7288C181.253 88.7288 179.105 91.0595 192.251 90.7317C193.344 90.6953 194.363 90.5496 195.31 90.2583Z" fill="url(#paint6_linear)"/>
<path d="M165.957 75.218C165.702 75.1816 165.411 75.1451 165.156 75.1451L150.407 74.1619C150.662 74.1619 150.953 74.1983 151.208 74.2347C158.856 75.1451 165.556 81.8459 169.089 88.6195L180.488 89.3843C180.123 88.7652 177.064 76.529 165.957 75.218Z" fill="#C10655"/>
<path d="M169.089 88.6558C168.944 88.7286 166.14 89.9304 151.828 97.2502C148.878 98.7434 145.855 99.2896 143.087 99.1075L157.836 100.091C160.604 100.273 163.627 99.7266 166.577 98.2335C180.889 90.9136 180.524 89.4569 180.67 89.3841L169.089 88.6558Z" fill="#C10655"/>
<path d="M165.157 74.3439L150.408 73.3607C132.053 72.1589 119.526 98.343 142.614 99.8361L157.363 100.819C145.892 100.055 138.208 87.7819 153.103 77.9493C156.744 75.5457 160.823 74.0526 165.157 74.3439Z" fill="url(#paint7_linear)"/>
<path d="M166.03 74.4164C177.829 75.8367 180.561 88.692 180.925 89.3839C180.779 89.4568 181.872 91.0956 166.649 98.8524C163.226 100.6 159.694 101.147 156.489 100.746C145.564 99.4351 138.608 87.5267 153.102 77.9853C157.836 74.817 162.17 73.943 166.03 74.4164ZM166.577 98.1969C180.889 90.8771 179.614 89.3475 179.76 89.2747C179.432 88.6192 177.065 76.5286 165.994 75.2176C162.389 74.7806 158.273 75.6182 153.83 78.568C140.21 87.5631 146.729 98.7796 157.035 100.018C160.021 100.346 163.335 99.8357 166.577 98.1969Z" fill="#FF63AB"/>
<g filter="url(#filter0_df)">
<path d="M231.447 47.9852C232.337 45.6473 232.519 42.7047 231.823 39.3156L209.647 14.234C206.366 13.1248 203.419 12.9399 200.986 13.5325L200.348 12.7865L194.716 17.5743C191.858 19.9333 190.538 24.0695 191.405 29.4308C192.325 35.0845 194.915 40.2984 199.252 45.1168C203.503 50.0113 208.957 53.8962 214.461 55.5087C219.681 57.0314 223.955 56.2367 226.653 53.6971L232.109 48.7097L231.447 47.9852Z" fill="#FFA100"/>
<path d="M200.57 13.8491C201.137 13.6957 201.73 13.5905 202.358 13.5237L191.416 23.623C191.529 22.9975 191.734 22.3783 191.929 21.8203L200.57 13.8491Z" fill="#FFB433"/>
<path d="M231.735 39.1737C232.033 40.6673 232.139 42.0786 232.113 43.3879L218.409 56.2041C217.956 56.1798 217.504 56.1353 217.043 56.0807L231.685 42.3766L230.375 40.9341L214.735 55.5815C214.608 55.5501 214.473 55.5085 214.346 55.4772C214.104 55.4044 213.852 55.3215 213.601 55.2386L229.683 40.1723L228.373 38.7298L211.606 54.4485C211.259 54.3043 210.923 54.1501 210.587 53.9959L227.67 37.9779L226.36 36.5354L208.751 53.0321C208.436 52.8579 208.132 52.6738 207.828 52.4897L225.668 35.7736L224.358 34.3311L206.178 51.3862C205.895 51.1821 205.611 50.978 205.328 50.774L223.656 33.5792L222.346 32.1367L203.762 49.5407C203.499 49.3167 203.237 49.0926 202.975 48.8686L221.643 31.3848L220.333 29.9423L201.558 47.5522C201.317 47.3082 201.075 47.0643 200.834 46.8203L219.641 29.1804L218.331 27.738L199.468 45.3849C199.237 45.1309 199.017 44.867 198.797 44.603L217.64 26.9761L216.33 25.5336L197.611 43.0926C197.402 42.8187 197.203 42.5348 197.004 42.2509L215.648 24.7618L214.338 23.3193L195.886 40.6454C195.697 40.3515 195.519 40.0477 195.341 39.7438L213.646 22.5574L212.336 21.1149L194.358 38.0001C194.191 37.6862 193.999 37.3739 193.853 37.0402L211.644 20.3531L210.334 18.9106L193.028 35.1388C192.892 34.795 192.757 34.4311 192.641 34.0875L209.642 18.1487L208.332 16.7062L191.952 32.0463C191.849 31.6524 191.729 31.2761 191.655 30.8926L207.64 15.9444L206.33 14.5019L191.263 28.573C191.214 28.1092 191.159 27.6929 191.157 27.2597L205.649 13.73L205.529 13.598C206.659 13.699 207.852 13.9114 209.094 14.2654C211.51 14.9625 213.918 16.1028 216.224 17.5846L229.047 31.7047C230.303 34.1238 231.246 36.6508 231.735 39.1737Z" fill="#FFB433"/>
<path d="M232.29 46.6299C232.168 47.102 232.029 47.5548 231.853 47.9883L232.049 48.2007L224.242 55.3019C223.599 55.5611 222.879 55.8464 222.15 55.9707L232.29 46.6299Z" fill="#FFB433"/>
<path d="M196.954 25.5641C199.173 36.3469 209.425 47.5625 219.855 50.6179C230.285 53.6734 236.952 47.3986 234.743 36.6059C232.524 25.823 222.272 14.6075 211.842 11.552C201.401 8.50641 194.745 14.7713 196.954 25.5641Z" fill="#FFBD4D"/>
<path opacity="0.2" d="M210.458 28.9202C208.826 20.9795 212.016 15.4903 217.97 14.35C226.041 19.117 233.015 28.0495 234.783 36.7164C236.414 44.6572 233.224 50.1463 227.27 51.2866C219.19 46.5095 212.235 37.5773 210.458 28.9202Z" fill="white"/>
<path opacity="0.7" d="M197.034 25.4224C199.235 36.2423 209.535 47.4698 220.041 50.5031C225.123 51.9721 229.31 51.239 232.047 48.8819C229.345 51.6432 224.925 52.5753 219.489 51.0209C208.982 47.9876 198.683 36.7601 196.481 25.9402C195.347 20.3532 196.609 15.9581 199.536 13.4421C196.996 16.0136 195.967 20.1896 197.034 25.4224Z" fill="white"/>
<path d="M201.373 26.8489C203.065 35.1129 210.93 43.7165 218.924 46.0498C226.918 48.3832 232.018 43.5833 230.325 35.3192C228.633 27.0552 220.768 18.4517 212.774 16.1183C204.78 13.7849 199.68 18.5849 201.373 26.8489Z" fill="#FFB433"/>
<path d="M229.584 36.1624C227.894 27.8587 219.977 19.2268 211.914 16.898C208.122 15.8079 204.968 16.2977 202.867 17.9805C204.927 15.7407 208.378 14.9715 212.659 16.1995C220.722 18.5283 228.639 27.1603 230.329 35.4639C231.23 39.862 230.2 43.2945 227.836 45.2027C229.665 43.1996 230.385 40.0572 229.584 36.1624Z" fill="#FFA100"/>
</g>
</g>
<defs>
<filter id="filter0_df" x="67.1418" y="4.78247" width="292.065" height="309.498" filterUnits="userSpaceOnUse" color-interpolation-filters="sRGB">
<feFlood flood-opacity="0" result="BackgroundImageFix"/>
<feColorMatrix in="SourceAlpha" type="matrix" values="0 0 0 0 0 0 0 0 0 0 0 0 0 0 0 0 0 0 127 0"/>
<feOffset dy="134"/>
<feGaussianBlur stdDeviation="62"/>
<feColorMatrix type="matrix" values="0 0 0 0 1 0 0 0 0 0.631373 0 0 0 0 0 0 0 0 0.2 0"/>
<feBlend mode="normal" in2="BackgroundImageFix" result="effect1_dropShadow"/>
<feBlend mode="normal" in="SourceGraphic" in2="effect1_dropShadow" result="shape"/>
<feGaussianBlur stdDeviation="3" result="effect2_foregroundBlur"/>
</filter>
<linearGradient id="paint0_linear" x1="38.8013" y1="128.808" x2="303.441" y2="10.2968" gradientUnits="userSpaceOnUse">
<stop stop-color="#6C5DD3"/>
<stop offset="1" stop-color="#FFC581"/>
</linearGradient>
<linearGradient id="paint1_linear" x1="189.978" y1="86.37" x2="151.637" y2="64.003" gradientUnits="userSpaceOnUse">
<stop offset="0.0196078" stop-color="#E53888"/>
<stop offset="0.3938" stop-color="#FF63AB"/>
<stop offset="1" stop-color="#C10655"/>
</linearGradient>
<linearGradient id="paint2_linear" x1="146.792" y1="44.009" x2="191.854" y2="88.2586" gradientUnits="userSpaceOnUse">
<stop offset="0.0196078" stop-color="#E53888"/>
<stop offset="0.3938" stop-color="#FF63AB"/>
<stop offset="1" stop-color="#C10655"/>
</linearGradient>
<linearGradient id="paint3_linear" x1="182.997" y1="66.8262" x2="231.712" y2="65.9442" gradientUnits="userSpaceOnUse">
<stop offset="0.0196078" stop-color="#E53888"/>
<stop offset="0.3938" stop-color="#FF63AB"/>
<stop offset="1" stop-color="#C10655"/>
</linearGradient>
<linearGradient id="paint4_linear" x1="228.904" y1="33.2649" x2="185.302" y2="76.3561" gradientUnits="userSpaceOnUse">
<stop offset="0.0196078" stop-color="#E53888"/>
<stop offset="0.3938" stop-color="#FF63AB"/>
<stop offset="1" stop-color="#C10655"/>
</linearGradient>
<linearGradient id="paint5_linear" x1="199.575" y1="56.1162" x2="212.303" y2="87.7338" gradientUnits="userSpaceOnUse">
<stop offset="0.0196078" stop-color="#E53888"/>
<stop offset="0.3938" stop-color="#FF63AB"/>
<stop offset="1" stop-color="#C10655"/>
</linearGradient>
<linearGradient id="paint6_linear" x1="179.05" y1="78.814" x2="205.137" y2="78.3417" gradientUnits="userSpaceOnUse">
<stop offset="0.0196078" stop-color="#E53888"/>
<stop offset="0.3938" stop-color="#FF63AB"/>
<stop offset="1" stop-color="#C10655"/>
</linearGradient>
<linearGradient id="paint7_linear" x1="148.979" y1="66.9427" x2="146.016" y2="99.6967" gradientUnits="userSpaceOnUse">
<stop offset="0.0196078" stop-color="#E53888"/>
<stop offset="0.5137" stop-color="#FF63AB"/>
<stop offset="1" stop-color="#C10655"/>
</linearGradient>
</defs>
</svg>
