<svg width="12" height="12" viewBox="0 0 12 12" fill="none" xmlns="http://www.w3.org/2000/svg">
<path d="M0.211955 5.7859L2.977 6.8179L4.04724 10.2598C4.11572 10.4802 4.38528 10.5617 4.5642 10.4154L6.10547 9.15894C6.26703 9.0273 6.49715 9.02074 6.66599 9.1433L9.44591 11.1616C9.63731 11.3007 9.90847 11.1958 9.95648 10.9645L11.9929 1.1689C12.0453 0.916262 11.7971 0.705502 11.5565 0.798542L0.208715 5.17618C-0.0713246 5.28418 -0.0688846 5.68066 0.211955 5.7859ZM3.87476 6.26854L9.27868 2.94026C9.37579 2.88062 9.47571 3.01194 9.39231 3.0893L4.93252 7.2349C4.77576 7.38082 4.67464 7.5761 4.646 7.78806L4.49408 8.9139C4.47396 9.06422 4.2628 9.07914 4.22132 8.93366L3.63704 6.88066C3.57012 6.6465 3.66764 6.39638 3.87476 6.26854Z" fill="#6C5DD3"/>
</svg>
